<svg enable-background="new 0 0 300 300" viewBox="0 0 300 300" xmlns="http://www.w3.org/2000/svg" xmlns:xlink="http://www.w3.org/1999/xlink"><clipPath id="a"><circle cx="480.8" cy="54.3" r="26.4"/></clipPath><path d="m554.7 83.7 77.4 20.8c3.8 1 6.1 4.9 5.1 8.8l-36.9 137.6c-1 3.8-4.9 6.1-8.8 5.1l-77.4-20.8c-3.8-1-6.1-4.9-5.1-8.8l36.9-137.6c1-3.8 4.9-6.1 8.8-5.1z" fill="#dbdbdb"/><circle cx="553.5" cy="195.1" fill="#ffeaa9" opacity=".69" r="2.2"/><circle cx="595.5" cy="161.9" fill="#ffeaa9" opacity=".69" r="2.2"/><circle cx="603.2" cy="133.1" fill="#ffeaa9" opacity=".69" r="2.2"/><path d="m556.8 108.6 61 16.4-3.7 13.9-61-16.4z" fill="#c1c3c6"/><path d="m541.4 145.8 71.2 19.1c1.9.5 3 2.5 2.5 4.4l-20.6 76.8c-.5 1.9-2.5 3-4.4 2.5l-71.2-19.1c-1.9-.5-3-2.5-2.5-4.4l20.6-76.8c.5-1.9 2.5-3 4.4-2.5z" fill="#fff"/><path d="m578.8 119.2h4.1v43.2h-4.1z" fill="#d3d3d3" transform="matrix(.259 -.9659 .9659 .259 294.4048 665.399)"/><g enable-background="new" fill="#605c50"><path d="m549.3 174.7.3-1.2c-1.1-.4-1.9-1-2.4-1.7s-.6-1.7-.4-2.7l2.2.6c-.1.4 0 .8.2 1.2s.5.6.9.8l.8-2.8-.5-.3c-.8-.5-1.5-1-1.9-1.6s-.5-1.3-.3-2.1c.2-.6.4-1.1.9-1.5.4-.4.9-.6 1.5-.8.6-.1 1.2-.2 1.9 0l.3-1.2 1.2.3-.3 1.2c1 .4 1.7.9 2.1 1.7.4.7.6 1.5.3 2.4l-2.2-.6c.1-.7-.2-1.2-.8-1.6l-.7 2.6.3.2c.6.3 1.1.7 1.5 1 .4.4.7.8.9 1.3s.2 1 0 1.6c-.2.9-.8 1.6-1.5 2-.8.4-1.7.5-2.9.3l-.3 1.2zm2.2-7.9.6-2.3c-.4 0-.7 0-1 .2-.2.2-.4.4-.5.6-.1.3 0 .6.1.8s.5.5.8.7zm-.1 5.1c.4 0 .8 0 1-.2.3-.2.5-.4.6-.7s0-.6-.1-.8c-.2-.2-.4-.5-.8-.7z"/><path d="m556.3 175.2 6.8-7.6v-.1l-5.2-1.4.5-1.8 7.5 2-.5 1.9-6.8 7.6z"/><path d="m572.2 168-2.9 10.7-2.3-.7 2.3-8.5h-.1l-2.9.9.5-2 3.1-1z"/><path d="m573.1 179.8c-.3-.1-.6-.3-.8-.6s-.2-.6-.1-1c.1-.3.3-.6.6-.8s.6-.2 1-.1c.3.1.6.3.8.6s.2.6.1 1c-.1.3-.3.6-.6.8s-.6.2-1 .1z"/><path d="m576.2 180.5.4-1.6 4.7-2.5c.6-.3 1.1-.6 1.4-.9s.6-.6.7-1c.1-.5.1-.9-.2-1.2-.2-.4-.6-.6-1.1-.7s-.9-.1-1.3.1-.6.6-.8 1.1l-2.1-.6c.2-.7.5-1.3 1-1.7s1-.7 1.6-.8 1.3-.1 2.1.1 1.4.5 1.9.9.8.9 1 1.5.2 1.1 0 1.8c-.1.4-.3.8-.6 1.1-.3.4-.7.7-1.2 1.1s-1.3.8-2.2 1.3l-2 1.1v.1l4.5 1.2-.5 1.8z"/><path d="m589.4 184.2c-.8-.2-1.4-.5-2-1-.5-.4-.9-.9-1.1-1.5s-.3-1.2-.1-1.8l2.3.6c-.1.4 0 .8.3 1.1s.7.6 1.2.7 1 .1 1.4-.1.7-.5.8-.9 0-.8-.2-1.2c-.3-.4-.7-.6-1.3-.8l-1-.3.4-1.7 1 .3c.5.1 1 .1 1.4-.1s.6-.5.8-.9c.1-.4.1-.8-.2-1.1-.2-.3-.5-.5-1-.7-.5-.1-.9-.1-1.3 0-.4.2-.6.4-.8.8l-2.2-.6c.2-.6.5-1.1 1-1.5s1-.6 1.7-.7c.6-.1 1.3-.1 2.1.1.7.2 1.3.5 1.8.9s.8.9 1 1.4.2 1.1 0 1.6c-.2.6-.5 1-1 1.3s-1 .4-1.7.4v.1c.8.3 1.3.7 1.6 1.3s.3 1.2.2 1.8c-.2.6-.5 1.1-1 1.5s-1.1.6-1.8.7c-.8.5-1.5.5-2.3.3z"/></g><path d="m563.9 164.7h4.1v63.2h-4.1z" fill="#d3d3d3" transform="matrix(.259 -.9659 .9659 .259 229.8338 692.1397)"/><path d="m586.9 215.1-48.5-13" fill="none" stroke="#d3d3d3" stroke-miterlimit="10.0012" stroke-width=".8943"/><path d="m577 221.1-32.9-8.8" fill="none" stroke="#d3d3d3" stroke-miterlimit="10.0012" stroke-width=".8943"/><circle cx="433.9" cy="200.6" fill="#ffeaa9" opacity=".69" r="2.2"/><circle cx="453.7" cy="150.9" fill="#ffeaa9" opacity=".69" r="2.2"/><circle cx="446" cy="122" fill="#ffeaa9" opacity=".69" r="2.2"/><path d="m379.2 103.5 77.4-20.8c3.8-1 7.7 1.2 8.8 5.1l36.9 137.6c1 3.8-1.2 7.7-5.1 8.8l-77.4 20.8c-3.8 1-7.7-1.2-8.8-5.1l-36.9-137.6c-1-3.8 1.3-7.7 5.1-8.8z" fill="#012169"/><g fill="#fff"><path d="m393.5 135.1-3.1-10.5 4.1-1.2c1.2-.3 2.2-.3 3 .1s1.4 1.2 1.7 2.2c.2.7.2 1.4.1 2-.2.6-.5 1.1-1 1.5l3.4 3.4-2.4.7-3.1-3.1-1.6.5 1.1 3.7zm.6-6.2 1.5-.4c1.3-.4 1.7-1.1 1.4-2.1-.3-1.1-1.1-1.4-2.4-1.1l-1.5.4z"/><path d="m402.9 132.3-3.1-10.5 7.1-2.1.5 1.8-4.8 1.4.7 2.5 4.5-1.3.5 1.8-4.5 1.3.7 2.5 4.9-1.4.5 1.8z"/><path d="m416.6 120.6c-.3-.4-.7-.8-1.1-.9-.5-.2-1-.2-1.5 0-.8.2-1.4.7-1.7 1.5-.3.7-.3 1.6 0 2.7s.8 1.9 1.5 2.3c.7.5 1.4.6 2.2.3.7-.2 1.3-.6 1.6-1.1s.4-1.1.2-1.7l-2.2.7-.5-1.7 4.4-1.3.4 1.3c.3.9.3 1.8.1 2.5-.2.8-.6 1.4-1.2 2s-1.3 1-2.2 1.2c-1 .3-1.9.3-2.8.1s-1.6-.7-2.3-1.3c-.6-.7-1.1-1.6-1.5-2.7-.3-1.1-.4-2.2-.2-3.1s.6-1.7 1.2-2.4c.6-.6 1.4-1.1 2.3-1.4.8-.2 1.6-.3 2.3-.2s1.4.4 1.9.8c.6.4 1 .9 1.3 1.6z"/><path d="m426.1 114.2 2.2-.6 2 6.9c.2.8.2 1.5 0 2.2s-.6 1.2-1.2 1.7-1.3.8-2.1 1.1c-.8.2-1.6.3-2.4.2-.7-.1-1.4-.4-1.9-.8s-.9-1.1-1.1-1.9l-2-6.9 2.2-.6 2 6.8c.2.6.5.9 1 1.1s1.1.2 1.7 0 1.1-.5 1.4-.9.4-.9.2-1.5z"/><path d="m433.2 123.5-3.1-10.5 2.2-.6 2.5 8.6 4.5-1.3.5 1.8z"/><path d="m443.4 120.5-2.4.7.6-11.5 2.9-.8 6.7 9.4-2.4.7-1.5-2.2-3.8 1.1zm.2-4.5 2.7-.8-2.4-3.6h-.1z"/><path d="m452.4 117.9-3.1-10.5 4.1-1.2c1.2-.3 2.2-.3 3 .1s1.4 1.2 1.7 2.2c.2.7.2 1.4.1 2-.2.6-.5 1.1-1 1.5l3.4 3.4-2.4.7-3.1-3.1-1.6.5 1.1 3.7zm.6-6.2 1.5-.4c1.3-.4 1.7-1.1 1.4-2.1-.3-1.1-1.1-1.4-2.4-1.1l-1.5.4z"/><path d="m398.8 163.9 71.2-19.1c1.9-.5 3.9.6 4.4 2.5l20.6 76.8c.5 1.9-.6 3.9-2.5 4.4l-71.2 19.1c-1.9.5-3.9-.6-4.4-2.5l-20.6-76.8c-.6-1.9.5-3.9 2.5-4.4z"/></g><path d="m408.9 137.8h43.2v4.1h-43.2z" fill="#d3d3d3" transform="matrix(.9659 -.259 .259 .9659 -21.547 116.2483)"/><g enable-background="new" fill="#605c50"><path d="m417.9 185.6-.3-1.2c-1.1.2-2.1.1-2.9-.3s-1.4-1.1-1.7-2.2l2.2-.6c.1.4.4.7.7.9s.7.3 1.2.2l-.7-2.8h-.5c-1 0-1.8-.1-2.4-.5-.6-.3-1.1-.9-1.3-1.7-.2-.6-.2-1.2 0-1.7s.5-1 .9-1.4 1-.8 1.7-1l-.3-1.2 1.2-.3.3 1.2c1-.2 1.9 0 2.7.4s1.3 1.1 1.5 1.9l-2.2.7c-.2-.7-.8-1-1.5-.9l.7 2.6h.3c.7 0 1.3 0 1.8.2s1 .4 1.4.7.7.8.8 1.4c.2.9.1 1.7-.4 2.5-.5.7-1.3 1.3-2.4 1.7l.3 1.2zm-2.1-7.9-.6-2.3c-.3.2-.6.4-.7.6-.1.3-.2.5-.1.8s.2.5.5.6c.3.2.6.3.9.3zm2.5 4.4c.4-.2.6-.4.8-.7s.2-.6.1-.9-.3-.5-.5-.6c-.3-.1-.6-.2-1-.2z"/><path d="m427.9 181.7c-.5.1-1.1.2-1.7.1-.6 0-1.1-.2-1.6-.5s-1-.8-1.4-1.4-.8-1.4-1-2.4c-.3-1.2-.4-2.3-.3-3.2s.5-1.7 1-2.4c.5-.6 1.2-1.1 2.1-1.3.7-.2 1.4-.2 2-.1s1.2.4 1.6.8c.5.4.8.9 1 1.4l-2.2.6c-.2-.4-.5-.6-.8-.8-.3-.1-.7-.2-1.1 0-.7.2-1.1.6-1.3 1.3s-.2 1.6.1 2.6h.1c.1-.5.4-1 .8-1.4s.9-.7 1.5-.8c.6-.2 1.2-.2 1.8 0s1.1.5 1.5.9.7 1 .9 1.7.2 1.4 0 2.1-.5 1.2-1.1 1.7c-.4.5-1.1.8-1.9 1.1zm-.5-1.8c.5-.1.9-.4 1.2-.9s.3-.9.2-1.5c-.1-.5-.4-.9-.9-1.2s-.9-.3-1.4-.2c-.3.1-.6.3-.9.5s-.4.5-.5.9c-.1.3-.1.7 0 1s.3.6.5.9.5.4.8.5c.4.1.7.1 1-0z"/><path d="m437.5 179.1c-.8.2-1.5.3-2.2.2s-1.3-.3-1.7-.7c-.5-.4-.8-.9-1-1.5l2.3-.6c.1.4.4.6.8.8.4.1.8.2 1.3 0 .5-.1.9-.4 1.2-.7.3-.4.3-.7.2-1.2-.1-.4-.4-.7-.8-.9s-.9-.2-1.5 0l-1 .3-.4-1.7 1-.3c.5-.1.9-.4 1.2-.7s.3-.7.2-1.1-.3-.7-.7-.9-.7-.2-1.2-.1-.8.4-1.1.7-.3.7-.2 1.1l-2.2.6c-.2-.6-.1-1.2.1-1.8s.6-1.1 1.1-1.5 1.1-.7 1.9-.9c.7-.2 1.4-.2 2-.1s1.2.4 1.6.7c.4.4.7.8.9 1.4s.1 1.1-.2 1.6-.7.9-1.3 1.2v.1c.8-.1 1.5 0 2 .3s.9.8 1.1 1.5c.2.6.1 1.2-.1 1.8s-.6 1.1-1.2 1.5c-.7.4-1.3.7-2.1.9z"/><path d="m444 177.3c-.3.1-.7 0-1-.1s-.5-.4-.6-.8c-.1-.3-.1-.7.1-1s.4-.5.8-.6c.3-.1.7 0 1 .1.3.2.5.4.6.8.1.3 0 .7-.1 1s-.4.5-.8.6z"/><path d="m446.4 174.5-.5-1.8 2.6-8.2 2.8-.8 1.9 7 1.3-.4.5 1.8-1.3.4.5 1.9-2.2.6-.5-1.9zm4.7-3.2-1.2-4.5h-.1l-1.6 5.2v.1z"/><path d="m460.9 172.8c-.7.2-1.4.2-2.1.1s-1.2-.4-1.7-.8-.8-.9-1-1.5l2.2-.6c.1.4.4.7.8.9s.8.2 1.3.1.9-.4 1.2-.9c.2-.4.3-.9.1-1.5s-.4-1-.9-1.2c-.4-.3-.9-.3-1.5-.2-.3.1-.6.2-.9.4s-.4.4-.5.7l-2.1.2-1-5.8 6.5-1.8.5 1.8-4.7 1.3.4 2.7h.1c.1-.3.3-.6.7-.9.3-.3.7-.5 1.2-.6.6-.2 1.3-.2 1.8 0 .6.2 1.1.5 1.5.9.4.5.7 1 .9 1.7s.2 1.4 0 2-.5 1.2-1.1 1.7c-.2.7-.9 1.1-1.7 1.3z"/></g><path d="m413.7 193.3h63.2v4.1h-63.2z" fill="#d3d3d3" transform="matrix(.9659 -.259 .259 .9659 -35.4007 121.9904)"/><path d="m472.9 201.2-48.5 13" fill="none" stroke="#d3d3d3" stroke-miterlimit="10.0012" stroke-width=".8943"/><path d="m467.3 211.4-33 8.8" fill="none" stroke="#d3d3d3" stroke-miterlimit="10.0012" stroke-width=".8943"/><circle cx="483.3" cy="221.8" fill="#ffeaa9" opacity=".69" r="4.1"/><circle cx="483" cy="172" fill="#c2d8ff" opacity=".7" r="2.2"/><circle cx="543.6" cy="121" fill="#64a3ff" opacity=".7" r="2.2"/><path d="m463.8 81.6h80.2c4 0 7.2 3.2 7.2 7.2v142.4c0 4-3.2 7.2-7.2 7.2h-80.2c-4 0-7.2-3.2-7.2-7.2v-142.5c0-3.9 3.3-7.1 7.2-7.1z" fill="#ffcb05"/><circle cx="491.5" cy="189.4" fill="#ffeaa9" opacity=".69" r="2.2"/><circle cx="533.7" cy="222.8" fill="#ffeaa9" opacity=".69" r="4.1"/><circle cx="523.5" cy="146.6" fill="#ffeaa9" opacity=".69" r="2.2"/><circle cx="523.5" cy="116.7" fill="#ffeaa9" opacity=".69" r="2.2"/><circle cx="485.2" cy="146.2" fill="#ffeaa9" opacity=".69" r="4.1"/><path d="m467 145h73.7c2 0 3.6 1.6 3.6 3.6v79.5c0 2-1.6 3.6-3.6 3.6h-73.7c-2 0-3.6-1.6-3.6-3.6v-79.5c.1-2 1.7-3.6 3.6-3.6z" fill="#fff"/><path d="m482.3 127.9h43.2v4.1h-43.2z" fill="#d3d3d3"/><g enable-background="new" fill="#605c50"><path d="m482.4 170.9v-1.3c-1.1-.1-2.1-.4-2.7-1.1-.7-.6-1-1.5-1-2.5h2.3c0 .4.2.8.5 1.1s.6.4 1.1.5v-2.9l-.5-.1c-.9-.2-1.7-.6-2.2-1.1s-.8-1.1-.8-1.9c0-.6.1-1.2.5-1.6s.7-.9 1.3-1.1c.5-.3 1.2-.5 1.9-.5v-1.3h1.3v1.3c1 .1 1.9.5 2.5 1.1s.9 1.3 1 2.2h-2.6c-.1-.7-.5-1.1-1.2-1.3v2.7l.3.1c.6.1 1.2.4 1.7.6.5.3.9.6 1.2 1.1.3.4.4 1 .4 1.6 0 .9-.3 1.7-1 2.3-.6.6-1.6.9-2.7 1v1.2h-1.3zm.1-8.2v-2.4c-.4.1-.7.2-.9.4s-.3.5-.3.7c0 .3.1.6.3.7.3.3.5.5.9.6zm1.2 4.9c.4-.1.7-.2 1-.5.2-.2.4-.5.4-.8s-.1-.6-.3-.7c-.2-.2-.5-.3-1-.5z"/><path d="m492.9 169.6c-.8 0-1.4-.1-2-.4s-1.1-.7-1.4-1.2-.5-1.1-.5-1.7h2.3c0 .4.2.8.5 1 .3.3.7.4 1.2.4s1-.2 1.3-.5c.4-.4.5-.8.5-1.4s-.2-1.1-.5-1.4-.8-.5-1.4-.6c-.3 0-.6.1-.9.2s-.5.3-.7.5l-2.1-.4.5-5.8h6.8v1.9h-4.8l-.3 2.8h.1c.2-.3.5-.5.9-.7s.8-.3 1.3-.3c.7 0 1.3.2 1.8.5s.9.7 1.2 1.3c.3.5.5 1.2.4 1.9 0 .7-.2 1.4-.5 2s-.8 1-1.5 1.4c-.6.4-1.4.5-2.2.5z"/><path d="m498.7 169.5v-1.7l3.9-3.6c.5-.5.9-.9 1.2-1.3s.4-.8.4-1.2c0-.5-.2-.9-.5-1.2s-.7-.4-1.2-.4-.9.2-1.2.5-.5.7-.5 1.2h-2.2c0-.7.2-1.4.5-1.9s.8-.9 1.4-1.2 1.3-.4 2-.4c.8 0 1.5.1 2.1.4s1 .7 1.4 1.2c.3.5.5 1.1.5 1.7 0 .4-.1.8-.2 1.2-.2.4-.5.9-.9 1.4s-1 1.1-1.8 1.8l-1.6 1.6v.1h4.6v1.9h-7.9z"/><path d="m509.6 169.6c-.4 0-.7-.1-.9-.4-.3-.3-.4-.6-.4-.9 0-.4.1-.7.4-.9.3-.3.6-.4.9-.4s.6.1.9.4.4.6.4.9c0 .4-.1.7-.4.9-.2.3-.5.4-.9.4z"/><path d="m516.4 158.4v11.1h-2.4v-8.8l-2.5 1.6v-2.1l2.7-1.7h2.2z"/><path d="m523.1 169.6c-.8 0-1.5-.1-2.2-.4-.6-.3-1.1-.7-1.5-1.2s-.5-1.1-.6-1.7h2.4c0 .4.2.7.6 1 .3.2.8.4 1.3.4s1-.1 1.3-.4.5-.6.5-1.1c0-.4-.2-.8-.5-1.1-.4-.3-.9-.4-1.5-.4h-1v-1.7h1c.5 0 1-.1 1.3-.4s.5-.6.5-1.1c0-.4-.1-.8-.4-1-.3-.3-.7-.4-1.1-.4-.5 0-.9.1-1.2.4s-.5.6-.5 1h-2.2c0-.6.2-1.2.5-1.7.4-.5.8-.9 1.4-1.1.6-.3 1.3-.4 2-.4.8 0 1.4.1 2 .4s1 .7 1.3 1.1c.3.5.5 1 .5 1.6s-.2 1.1-.6 1.5-.9.7-1.5.8v.1c.8.1 1.4.4 1.9.8.4.5.6 1 .6 1.7 0 .6-.2 1.2-.5 1.7-.4.5-.9.9-1.5 1.2-.7.3-1.5.4-2.3.4z"/></g><path d="m472.3 185.3h63.2v4.1h-63.2z" fill="#d3d3d3"/><path d="m529 200.2h-50.2" fill="none" stroke="#d3d3d3" stroke-miterlimit="10" stroke-width=".8942"/><path d="m520.9 208.5h-34.1" fill="none" stroke="#d3d3d3" stroke-miterlimit="10" stroke-width=".8942"/><path d="m470.8 113.1v-10.9h7.4v1.9h-5v2.6h4.7v1.9h-4.7v2.6h5.1v1.9z" fill="#fff"/><path d="m482.2 102.2 2.2 3.7h.1l2.2-3.7h2.6l-3.3 5.5 3.4 5.5h-2.7l-2.2-3.7h-.1l-2.2 3.7h-2.6l3.4-5.5-3.4-5.5z" fill="#fff"/><path d="m490.7 113.1v-10.9h4.3c.8 0 1.5.2 2.1.5s1 .7 1.3 1.3.5 1.2.5 1.9-.2 1.4-.5 1.9-.8 1-1.4 1.3-1.3.5-2.1.5h-1.9v3.5zm2.3-5.4h1.6c.7 0 1.2-.2 1.5-.5s.5-.8.5-1.3-.2-1-.5-1.3-.8-.5-1.5-.5h-1.6z" fill="#fff"/><path d="m500.4 113.1v-10.9h4.3c1.2 0 2.2.3 2.9 1 .7.6 1 1.5 1 2.6 0 .7-.2 1.4-.5 1.9s-.8.9-1.4 1.2l2.3 4.2h-2.5l-2.1-3.9h-1.7v3.9zm2.3-5.8h1.6c1.3 0 2-.5 2-1.6s-.7-1.7-2-1.7h-1.6z" fill="#fff"/><path d="m510.3 113.1v-10.9h7.3v1.9h-5v2.6h4.7v1.9h-4.7v2.6h5.1v1.9z" fill="#fff"/><path d="m525.4 105.3c0-.4-.2-.8-.6-1-.3-.2-.8-.4-1.3-.4-.6 0-1 .1-1.3.3s-.5.5-.5.9.2.7.5.9.8.4 1.2.5l1 .2c.6.1 1.2.3 1.7.6s.9.6 1.2 1 .4.9.4 1.5c0 1-.4 1.8-1.1 2.4s-1.8.9-3.1.9-2.4-.3-3.2-.9-1.2-1.5-1.2-2.7h2.2c0 .5.3 1 .6 1.2s.9.4 1.5.4 1.1-.1 1.4-.4.5-.6.5-1-.2-.7-.5-.9-.8-.4-1.4-.5l-1.2-.3c-.9-.2-1.6-.6-2.2-1-.5-.5-.8-1.1-.8-1.9 0-.7.2-1.2.5-1.7.4-.5.8-.9 1.5-1.2.6-.3 1.3-.4 2.1-.4s1.5.1 2.1.4 1.1.7 1.4 1.2.5 1.1.5 1.7h-1.9z" fill="#fff"/><path d="m535.2 105.3c0-.4-.2-.8-.6-1-.3-.2-.8-.4-1.3-.4-.6 0-1 .1-1.3.3s-.5.5-.5.9.2.7.5.9.8.4 1.2.5l1 .2c.6.1 1.2.3 1.7.6s.9.6 1.2 1 .4.9.4 1.5c0 1-.4 1.8-1.1 2.4s-1.8.9-3.1.9-2.4-.3-3.2-.9-1.2-1.5-1.2-2.7h2.2c0 .5.3 1 .6 1.2s.9.4 1.5.4 1.1-.1 1.4-.4.5-.6.5-1-.2-.7-.5-.9-.8-.4-1.4-.5l-1.2-.3c-.9-.2-1.6-.6-2.2-1-.5-.5-.8-1.1-.8-1.9 0-.7.2-1.2.5-1.7.4-.5.8-.9 1.5-1.2.6-.3 1.3-.4 2.1-.4s1.5.1 2.1.4 1.1.7 1.4 1.2.5 1.1.5 1.7h-1.9z" fill="#fff"/><g transform="translate(-2.459 108.733)"><path d="m462.9 80.2c1.6 1.2 2 3.4.8 5.1l-20.7 28.7c-1.2 1.6-3.4 2-5.1.8-1.6-1.2-2-3.4-.8-5.1l20.7-28.7c1.2-1.6 3.5-1.9 5.1-.8z" fill="#848484"/><path d="m463.8 76.3 2.6 1.9c1 .7 1.3 2.2.5 3.2-.7 1-2.2 1.3-3.2.5l-2.6-1.9c-1-.7-1.3-2.2-.5-3.2.7-1 2.1-1.3 3.2-.5z" fill="#848484"/><path d="m465.2 77.3-.7-.5c1.4 1 1.9 2.7 1.2 3.7s-2.5 1-3.9 0l.7.5c1.4 1 3.1 1 3.9 0s.2-2.7-1.2-3.7z" opacity=".15"/><path d="m468.1 81.6-8.2-5.9c-.8-.6-1-1.7-.4-2.5.6-.8 1.7-1 2.5-.4l8.2 5.9c2.4.7 1 1.7.4 2.5-.6.8-1.7 1-2.5.4z" fill="#848484"/><path d="m464.7 69.7h1.8v13.7h-1.8z" opacity=".15" transform="matrix(.585 -.811 .811 .585 131.1651 409.3512)"/><circle cx="481.6" cy="54.3" fill="#c3e5e0" r="26.2"/><g fill="none" stroke="#444447" stroke-linecap="round" stroke-linejoin="round"><circle cx="481.6" cy="54.3" r="26.2" stroke-width="2.0022"/><path d="m450.6 98.8-7.4 10.4" stroke-width="1.0015"/><path d="m442.1 110.6-1.5 2.1" stroke-width="1.0015"/></g><path d="m506.9 50.9c.1 14.5-11.5 26.3-25.9 26.4-13.4.1-24.8-9.9-26.3-23.3.1 14.5 12 26.1 26.4 25.9 14.5-.1 26.1-12 25.9-26.4.1-.9 0-1.7-.1-2.6z" opacity=".15"/><g clip-path="url(#a)"><g enable-background="new" fill="#444447"><path d="m463.5 63.4v-2.4c-2.2-.2-3.9-.8-5.1-2-1.3-1.1-1.9-2.7-2-4.8h4.3c.1.8.4 1.5.9 2s1.2.8 2 1l.1-5.4-1-.2c-1.8-.4-3.1-1.1-4.2-2-1-.9-1.5-2.1-1.5-3.7 0-1.2.3-2.2.9-3.1s1.4-1.6 2.4-2.2c1-.5 2.2-.9 3.5-1v-2.4h2.4v2.4c2 .2 3.5.9 4.7 2s1.8 2.5 1.8 4.2h-4.2c-.1-1.3-.9-2.1-2.3-2.5v5.1l.6.1c1.2.3 2.3.7 3.2 1.2s1.7 1.2 2.2 2 .8 1.8.8 3c0 1.8-.6 3.2-1.8 4.3s-2.9 1.7-5.1 1.9v2.3h-2.6zm.2-15.4v-4.5c-.7.1-1.3.4-1.6.8-.4.4-.6.9-.6 1.4 0 .6.2 1.1.6 1.4s.9.7 1.6.9zm2.3 9.3c.8-.2 1.4-.4 1.8-.9.4-.4.7-1 .7-1.6s-.2-1-.6-1.4-1-.7-1.8-.9z"/><path d="m483.3 61.1c-1.4 0-2.7-.3-3.8-.8s-2-1.3-2.7-2.2-1-2-1-3.2h4.3c.1.8.4 1.5 1 2s1.4.8 2.2.8c1 0 1.9-.3 2.5-1s1-1.6 1-2.6c0-1.1-.3-2-1-2.7s-1.5-1-2.6-1c-.6 0-1.2.1-1.8.4-.6.2-1 .6-1.3 1l-3.9-.7 1-11h12.7v3.6h-9.1l-.5 5.2h.1c.4-.5.9-.9 1.7-1.3.7-.3 1.6-.5 2.5-.5 1.3 0 2.4.3 3.4.9s1.8 1.4 2.3 2.4c.6 1 .9 2.2.8 3.5 0 1.4-.3 2.6-1 3.7s-1.6 1.9-2.7 2.6c-1.2.6-2.5.9-4.1.9z"/><path d="m494.2 60.8v-3.2l7.4-6.9c.9-.9 1.7-1.7 2.2-2.4s.7-1.4.7-2.2c0-.9-.3-1.6-.9-2.2-.6-.5-1.4-.8-2.3-.8s-1.7.3-2.3.9-.9 1.4-.9 2.4h-4.1c0-1.4.3-2.5.9-3.5s1.5-1.8 2.6-2.3 2.4-.8 3.8-.8c1.5 0 2.8.3 3.9.8s2 1.2 2.6 2.2c.6.9.9 2 .9 3.2 0 .8-.2 1.6-.5 2.3s-.9 1.6-1.6 2.5c-.8.9-1.9 2-3.3 3.3l-3 3v.1h8.7v3.6z"/></g></g></g><circle cx="22" cy="195.3" fill="#ffeaa9" opacity=".69" r="2.2"/><circle cx="216.9" cy="80.7" fill="#64a3ff" r="2.2"/><circle cx="117.9" cy="236.9" fill="#ffeaa9" opacity=".69" r="4.1"/><circle cx="245.8" cy="244.4" fill="#64a3ff" r="4.1"/><circle cx="38.7" cy="83.8" fill="#f0f3f7" opacity=".7" r="2.2"/><circle cx="278" cy="190.1" fill="#f0f3f7" opacity=".7" r="2.2"/><circle cx="105.4" cy="94.1" fill="#f0f3f7" opacity=".7" r="4.1"/><circle cx="44.8" cy="218.1" fill="#f0f3f7" opacity=".7" r="4.1"/><circle cx="44.7" cy="55.4" fill="none" r="3.6" stroke="#ff931e" stroke-linecap="round" stroke-linejoin="round" stroke-width=".8942"/><circle cx="267.3" cy="228.5" fill="#64a3ff" r="2.2"/><circle cx="271.3" cy="107.7" fill="#64a3ff" r="4.1"/><circle cx="120.1" cy="68.4" fill="#ffeaa9" opacity=".69" r="2.2"/><circle cx="187.2" cy="243.8" fill="#ffeaa9" opacity=".69" r="2.2"/><circle cx="84.2" cy="200.8" fill="#64a3ff" r="2.2"/><circle cx="74.2" cy="107.8" fill="#ffeaa9" opacity=".69" r="2.2"/><circle cx="152.4" cy="88.5" fill="#ffeaa9" opacity=".69" r="4.1"/><circle cx="193.9" cy="104.3" fill="none" r="4.4" stroke="#fcee21" stroke-linecap="round" stroke-linejoin="round" stroke-width=".8942"/><circle cx="210.3" cy="226.5" fill="none" r="4.4" stroke="#f0f" stroke-linecap="round" stroke-linejoin="round" stroke-width=".8942"/><circle cx="72.3" cy="72.5" fill="none" r="4.4" stroke="#f0f" stroke-linecap="round" stroke-linejoin="round" stroke-width=".8942"/><circle cx="153.9" cy="252" fill="none" r="3" stroke="#fbb03b" stroke-linecap="round" stroke-linejoin="round" stroke-width=".8942"/><g fill="#ffdb43" transform="translate(117.271 31.118)"><path d="m135 45.2c-.3 0-.5-.2-.6-.5l-.3-7.1c0-.3.2-.5.5-.6.3 0 .5.2.6.5l.3 7.1c-.1.4-.2.6-.5.6z"/><path d="m135.6 58.1c-.3 0-.5-.2-.6-.5l-.3-7.1c0-.3.2-.5.5-.6.3 0 .5.2.6.5l.3 7.1c0 .3-.2.6-.5.6z"/><path d="m137.4 47.4c0-.3.2-.5.5-.6l7.1-.3c.3 0 .5.2.6.5 0 .3-.2.5-.5.6l-7.1.3c-.3 0-.6-.2-.6-.5z"/><path d="m124.6 48c0-.3.2-.5.5-.6l7.1-.3c.3 0 .5.2.6.5 0 .3-.2.5-.5.6l-7.1.3c-.4 0-.6-.1-.6-.5z"/></g><g fill="#ffdb43" transform="translate(13.844 213.105)"><path d="m125.5-15.9c-.2 0-.4-.1-.4-.4l-.2-5.6c0-.2.1-.4.4-.4.2 0 .4.1.4.4l.2 5.6c0 .2-.2.4-.4.4z"/><path d="m126.1-6c-.2 0-.4-.1-.4-.4l-.2-5.6c0-.2.1-.4.4-.4.2 0 .4.1.4.4l.2 5.6c-.1.2-.2.4-.4.4z"/><path d="m127.4-14.2c0-.2.1-.4.4-.4l5.6-.2c.2 0 .4.1.4.4 0 .2-.1.4-.4.4l-5.6.2c-.2-0-.4-.2-.4-.4z"/><path d="m117.5-13.7c0-.2.1-.4.4-.4l5.6-.2c.2 0 .4.1.4.4 0 .2-.1.4-.4.4l-5.6.2c-.2-0-.4-.2-.4-.4z"/></g><g fill="#ffdb43" transform="translate(13.844 213.105)"><path d="m73.5-169.9c-.2 0-.4-.1-.4-.4l-.2-5.6c0-.2.1-.4.4-.4.2 0 .4.1.4.4l.2 5.6c0 .2-.2.4-.4.4z"/><path d="m74.1-160c-.2 0-.4-.1-.4-.4l-.2-5.6c0-.2.1-.4.4-.4.2 0 .4.1.4.4l.2 5.6c-.1.2-.2.4-.4.4z"/><path d="m75.4-168.2c0-.2.1-.4.4-.4l5.6-.2c.2 0 .4.1.4.4 0 .2-.1.4-.4.4l-5.6.2c-.2-0-.4-.2-.4-.4z"/><path d="m65.5-167.7c0-.2.1-.4.4-.4l5.6-.2c.2 0 .4.1.4.4 0 .2-.1.4-.4.4l-5.6.2c-.2-0-.4-.2-.4-.4z"/></g><g fill="#1ac7ad" transform="translate(104.221)"><path d="m77 61.7c-.2 0-.4-.1-.4-.4l-.2-5.6c0-.2.1-.4.4-.4.2 0 .4.1.4.4l.2 5.6c-.1.2-.2.3-.4.4z"/><path d="m77.5 71.6c-.2 0-.4-.1-.4-.4l-.2-5.6c0-.2.1-.4.4-.4.2 0 .4.1.4.4l.2 5.6c0 .2-.2.3-.4.4z"/><path d="m78.9 63.3c0-.2.1-.4.4-.4l5.6-.2c.2 0 .4.1.4.4 0 .2-.1.4-.4.4l-5.6.2c-.3 0-.4-.2-.4-.4z"/><path d="m68.9 63.9c0-.2.1-.4.4-.4l5.6-.2c.2 0 .4.1.4.4 0 .2-.1.4-.4.4l-5.6.2c-.1-.1-.4-.3-.4-.4z"/></g><g fill="#ffdb43" transform="translate(0 180.928)"><path d="m72.4 69.3c-.3 0-.5-.2-.6-.5l-.3-7.1c0-.3.2-.5.5-.6.3 0 .5.2.6.5l.3 7.1c-.1.4-.2.6-.5.6z"/><path d="m73 82.2c-.3 0-.5-.2-.6-.5l-.3-7.1c0-.3.2-.5.5-.6.3 0 .5.2.6.5l.3 7.1c0 .4-.2.6-.5.6z"/><path d="m74.8 71.6c0-.3.2-.5.5-.6l7.1-.3c.3 0 .5.2.6.5 0 .3-.2.5-.5.6l-7.1.2c-.3 0-.6-.1-.6-.4z"/><path d="m62 72.2c0-.3.2-.5.5-.6l7.1-.3c.3 0 .5.2.6.5 0 .3-.2.5-.5.6l-7.1.3c-.4 0-.6-.2-.6-.5z"/></g><path d="m110.5 155.5 8.9-31.9h5.8v42.1h-5.3v-29.9l-7.4 29.9h-3.7l-7.6-29.7v29.7h-5.4v-42.1h5.8z" fill="#59595a"/><path d="m151.3 151.1 2.2 14.6h-5.7l-1.4-9.3h-8.6l-1.4 9.3h-5.7l2.2-14.5 4.9-27.6h8.5zm-5.6.6-3.6-23.9-3.6 23.9z" fill="#59595a"/><path d="m177.5 158c0 5.6-3.2 8.4-9.5 8.4s-9.5-2.8-9.5-8.4v-26.6c0-5.6 3.2-8.4 9.5-8.4s9.5 2.8 9.5 8.4v5.1h-5.6v-5.1c0-2.5-1.3-3.7-3.9-3.7s-3.9 1.3-3.9 3.7v26.6c0 2.5 1.3 3.7 3.9 3.7s3.9-1.2 3.9-3.7v-5.1h5.6z" fill="#59595a"/><path d="m184.6 123.6h5.6v18.7h7.7v-18.7h5.6v42.1h-5.6v-18.7h-7.7v18.7h-5.6z" fill="#59595a"/><path d="m229.9 158c0 5.6-3.2 8.4-9.5 8.4s-9.5-2.8-9.5-8.4v-26.6c0-5.6 3.2-8.4 9.5-8.4s9.5 2.8 9.5 8.4zm-5.7-26.7c0-2.5-1.3-3.7-3.9-3.7s-3.9 1.3-3.9 3.7v26.7c0 2.5 1.3 3.7 3.9 3.7s3.9-1.2 3.9-3.7z" fill="#59595a"/><path d="m255.7 158c0 5.6-3.2 8.4-9.5 8.4s-9.5-2.8-9.5-8.4v-26.6c0-5.6 3.2-8.4 9.5-8.4s9.5 2.8 9.5 8.4zm-5.6-26.7c0-2.5-1.3-3.7-3.9-3.7s-3.9 1.3-3.9 3.7v26.7c0 2.5 1.3 3.7 3.9 3.7s3.9-1.2 3.9-3.7z" fill="#59595a"/><path d="m263 165.7v-42.1h5.6v37.4h11.4v4.7z" fill="#59595a"/><path d="m62.8 134.2 18.2 10.5-18.2 10.5z" fill="#62b29d"/><path d="m62.8 134.2-18.2 10.5 18.2 10.5z" fill="#aed5c9"/><path d="m44.6 144.6 18.2 10.5-18.2 10.5z" fill="#62b29d"/><path d="m44.6 144.6-18.2 10.5 18.2 10.5z" fill="#aed5c9"/><path d="m26.4 155.1 18.2 10.5-18.2 10.5z" fill="#62b29d"/><path d="m44.6 123.7 18.2 10.5-18.2 10.5z" fill="#62b29d"/><path d="m44.6 123.7-18.2 10.5 18.2 10.5z" fill="#aed5c9"/><path d="m26.4 113.2 18.2 10.5-18.2 10.5z" fill="#62b29d"/><text fill="#59595a" font-family="'Poppins-SemiBold'" font-size="13.244" transform="translate(205.0225 192.8711)">for</text><path clip-rule="evenodd" d="m236.2 175.6h39.2c2.5 0 4.5 2 4.5 4.5v15c0 2.5-2 4.5-4.5 4.5h-14.1l1.9 4.7-8.5-4.7h-18.6c-2.5 0-4.5-2-4.5-4.5v-15c.1-2.5 2.1-4.5 4.6-4.5z" fill="#9b5c8f" fill-rule="evenodd"/><path d="m234.2 179.6c.3-.4.7-.6 1.2-.6 1-.1 1.6.4 1.7 1.4.6 4.1 1.3 7.6 2 10.5l4.3-8.2c.4-.7.9-1.1 1.5-1.2.9-.1 1.4.5 1.6 1.7.5 2.6 1.1 4.8 1.9 6.7.5-5 1.4-8.6 2.6-10.8.3-.6.7-.8 1.3-.9.5 0 .9.1 1.2.4.4.3.6.7.6 1.1s0 .7-.2.9c-.8 1.4-1.4 3.8-1.9 7.1-.5 3.2-.7 5.7-.6 7.5 0 .5 0 .9-.2 1.3s-.6.7-1 .7c-.5 0-1-.2-1.6-.7-1.8-1.9-3.3-4.7-4.4-8.4-1.3 2.5-2.2 4.4-2.8 5.7-1.2 2.2-2.1 3.4-3 3.4-.5 0-1-.4-1.4-1.4-1-2.6-2.1-7.6-3.3-15 .1-.4.2-.8.5-1.2z" fill="#fff"/><path d="m276.5 182.7c-.7-1.2-1.8-2-3.2-2.3-.4-.1-.7-.1-1.1-.1-1.9 0-3.4 1-4.6 3-1 1.7-1.5 3.5-1.5 5.6 0 1.5.3 2.8.9 3.9.7 1.2 1.8 2 3.2 2.3.4.1.7.1 1.1.1 1.9 0 3.4-1 4.6-3 1-1.7 1.5-3.5 1.5-5.6.1-1.5-.2-2.8-.9-3.9zm-2.5 5.5c-.3 1.3-.8 2.3-1.5 2.9-.6.5-1.1.7-1.6.6s-.9-.5-1.2-1.3c-.2-.6-.4-1.2-.4-1.8 0-.5 0-1 .1-1.4.2-.8.5-1.6 1-2.3.7-1 1.3-1.4 2-1.2.5.1.9.5 1.2 1.3.2.6.4 1.2.4 1.8.2.4.1.9 0 1.4z" fill="#fff"/><path d="m264.2 182.7c-.7-1.2-1.8-2-3.2-2.3-.4-.1-.7-.1-1.1-.1-1.9 0-3.4 1-4.6 3-1 1.7-1.5 3.5-1.5 5.6 0 1.5.3 2.8.9 3.9.7 1.2 1.8 2 3.2 2.3.4.1.7.1 1.1.1 1.9 0 3.4-1 4.6-3 1-1.7 1.5-3.5 1.5-5.6 0-1.5-.3-2.8-.9-3.9zm-2.5 5.5c-.3 1.3-.8 2.3-1.5 2.9-.6.5-1.1.7-1.6.6s-.9-.5-1.2-1.3c-.2-.6-.4-1.2-.4-1.8 0-.5 0-1 .1-1.4.2-.8.5-1.6 1-2.3.7-1 1.3-1.4 2-1.2.5.1.9.5 1.2 1.3.2.6.4 1.2.4 1.8.1.4.1.9 0 1.4z" fill="#fff"/></svg>